<mxfile host="app.diagrams.net" modified="2022-12-28T08:33:19.930Z" agent="5.0 (Windows NT 10.0; Win64; x64) AppleWebKit/537.36 (KHTML, like Gecko) Chrome/106.0.0.0 YaBrowser/22.11.5.715 Yowser/2.5 Safari/537.36" etag="kP6SjtOBtAfUPcosSQrY" version="20.7.4" type="github">
  <diagram name="Page-1" id="e7e014a7-5840-1c2e-5031-d8a46d1fe8dd">
    <mxGraphModel dx="664" dy="777" grid="1" gridSize="10" guides="1" tooltips="1" connect="1" arrows="1" fold="1" page="1" pageScale="1" pageWidth="1169" pageHeight="826" background="none" math="0" shadow="0">
      <root>
        <mxCell id="0" />
        <mxCell id="1" parent="0" />
        <mxCell id="vzEPvGNgW9T1r-BRCIDj-41" value="Зайти на сайт и принять условия" style="rounded=0;whiteSpace=wrap;html=1;labelBackgroundColor=none;fontFamily=Times New Roman;fontSize=15;fillColor=#e1d5e7;strokeColor=#9673a6;sketch=0;shadow=1;" parent="1" vertex="1">
          <mxGeometry x="280" y="240" width="160" height="80" as="geometry" />
        </mxCell>
        <mxCell id="vzEPvGNgW9T1r-BRCIDj-42" value="Прохождение заданий и прочих условий" style="rounded=0;whiteSpace=wrap;html=1;labelBackgroundColor=none;fontFamily=Times New Roman;fontSize=15;fillColor=#e1d5e7;strokeColor=#9673a6;sketch=0;shadow=1;" parent="1" vertex="1">
          <mxGeometry x="600" y="320" width="160" height="80" as="geometry" />
        </mxCell>
        <mxCell id="vzEPvGNgW9T1r-BRCIDj-43" value="Получить нового персонажа" style="rounded=0;whiteSpace=wrap;html=1;labelBackgroundColor=none;fontFamily=Times New Roman;fontSize=15;fillColor=#e1d5e7;strokeColor=#9673a6;sketch=0;shadow=1;" parent="1" vertex="1">
          <mxGeometry x="920" y="400" width="160" height="80" as="geometry" />
        </mxCell>
        <mxCell id="vzEPvGNgW9T1r-BRCIDj-44" value="" style="endArrow=classic;html=1;rounded=0;exitX=1;exitY=0.5;exitDx=0;exitDy=0;entryX=0;entryY=0.5;entryDx=0;entryDy=0;edgeStyle=orthogonalEdgeStyle;fontFamily=Times New Roman;" parent="1" source="vzEPvGNgW9T1r-BRCIDj-41" target="vzEPvGNgW9T1r-BRCIDj-42" edge="1">
          <mxGeometry width="50" height="50" relative="1" as="geometry">
            <mxPoint x="640" y="490" as="sourcePoint" />
            <mxPoint x="690" y="440" as="targetPoint" />
          </mxGeometry>
        </mxCell>
        <mxCell id="vzEPvGNgW9T1r-BRCIDj-45" value="Завершение регистрации" style="edgeLabel;html=1;align=center;verticalAlign=middle;resizable=0;points=[];fontSize=14;fontFamily=Times New Roman;labelBackgroundColor=none;" parent="vzEPvGNgW9T1r-BRCIDj-44" vertex="1" connectable="0">
          <mxGeometry x="-0.2159" y="-4" relative="1" as="geometry">
            <mxPoint y="16" as="offset" />
          </mxGeometry>
        </mxCell>
        <mxCell id="vzEPvGNgW9T1r-BRCIDj-46" value="" style="endArrow=classic;html=1;rounded=0;exitX=1;exitY=0.5;exitDx=0;exitDy=0;entryX=0;entryY=0.5;entryDx=0;entryDy=0;edgeStyle=orthogonalEdgeStyle;fontFamily=Times New Roman;" parent="1" source="vzEPvGNgW9T1r-BRCIDj-42" target="vzEPvGNgW9T1r-BRCIDj-43" edge="1">
          <mxGeometry width="50" height="50" relative="1" as="geometry">
            <mxPoint x="640" y="490" as="sourcePoint" />
            <mxPoint x="690" y="440" as="targetPoint" />
          </mxGeometry>
        </mxCell>
        <mxCell id="vzEPvGNgW9T1r-BRCIDj-47" value="Выполнение условий&lt;br&gt;события" style="edgeLabel;html=1;align=center;verticalAlign=middle;resizable=0;points=[];fontSize=14;fontFamily=Times New Roman;labelBackgroundColor=none;" parent="vzEPvGNgW9T1r-BRCIDj-46" vertex="1" connectable="0">
          <mxGeometry x="-0.1415" y="1" relative="1" as="geometry">
            <mxPoint y="16" as="offset" />
          </mxGeometry>
        </mxCell>
        <mxCell id="vzEPvGNgW9T1r-BRCIDj-48" value="Выполнение &lt;br style=&quot;font-size: 13px;&quot;&gt;требований&amp;nbsp;&amp;nbsp;" style="text;html=1;align=center;verticalAlign=middle;resizable=0;points=[];autosize=1;strokeColor=none;fillColor=none;fontFamily=Times New Roman;fontSize=13;" parent="1" vertex="1">
          <mxGeometry x="174" y="240" width="90" height="40" as="geometry" />
        </mxCell>
        <mxCell id="vzEPvGNgW9T1r-BRCIDj-49" value="A1" style="text;html=1;strokeColor=none;fillColor=none;align=center;verticalAlign=middle;whiteSpace=wrap;rounded=0;fontFamily=Times New Roman;" parent="1" vertex="1">
          <mxGeometry x="420" y="300" width="20" height="20" as="geometry" />
        </mxCell>
        <mxCell id="vzEPvGNgW9T1r-BRCIDj-50" value="A2" style="text;html=1;strokeColor=none;fillColor=none;align=center;verticalAlign=middle;whiteSpace=wrap;rounded=0;fontFamily=Times New Roman;" parent="1" vertex="1">
          <mxGeometry x="740" y="380" width="20" height="20" as="geometry" />
        </mxCell>
        <mxCell id="vzEPvGNgW9T1r-BRCIDj-51" value="" style="endArrow=classic;html=1;rounded=1;entryX=0.5;entryY=0;entryDx=0;entryDy=0;fontFamily=Times New Roman;edgeStyle=orthogonalEdgeStyle;" parent="1" target="vzEPvGNgW9T1r-BRCIDj-41" edge="1">
          <mxGeometry width="50" height="50" relative="1" as="geometry">
            <mxPoint x="680" y="120" as="sourcePoint" />
            <mxPoint x="280" y="310" as="targetPoint" />
          </mxGeometry>
        </mxCell>
        <mxCell id="vzEPvGNgW9T1r-BRCIDj-52" value="" style="endArrow=classic;html=1;rounded=0;entryX=0.5;entryY=1;entryDx=0;entryDy=0;fontFamily=Times New Roman;" parent="1" target="vzEPvGNgW9T1r-BRCIDj-42" edge="1">
          <mxGeometry width="50" height="50" relative="1" as="geometry">
            <mxPoint x="680" y="640" as="sourcePoint" />
            <mxPoint x="660" y="525" as="targetPoint" />
          </mxGeometry>
        </mxCell>
        <mxCell id="vzEPvGNgW9T1r-BRCIDj-53" value="Система акции" style="edgeLabel;html=1;align=center;verticalAlign=middle;resizable=0;points=[];labelBackgroundColor=none;fontFamily=Times New Roman;fontSize=14;" parent="vzEPvGNgW9T1r-BRCIDj-52" vertex="1" connectable="0">
          <mxGeometry x="-0.1446" y="2" relative="1" as="geometry">
            <mxPoint x="2" y="-8" as="offset" />
          </mxGeometry>
        </mxCell>
        <mxCell id="vzEPvGNgW9T1r-BRCIDj-54" value="" style="endArrow=classic;html=1;rounded=1;entryX=0.5;entryY=1;entryDx=0;entryDy=0;fontFamily=Times New Roman;edgeStyle=orthogonalEdgeStyle;" parent="1" target="vzEPvGNgW9T1r-BRCIDj-43" edge="1">
          <mxGeometry width="50" height="50" relative="1" as="geometry">
            <mxPoint x="680" y="600" as="sourcePoint" />
            <mxPoint x="980" y="720" as="targetPoint" />
            <Array as="points">
              <mxPoint x="680" y="600" />
              <mxPoint x="1000" y="600" />
            </Array>
          </mxGeometry>
        </mxCell>
        <mxCell id="vzEPvGNgW9T1r-BRCIDj-55" value="Система рассылки&amp;nbsp;" style="edgeLabel;html=1;align=center;verticalAlign=middle;resizable=0;points=[];labelBackgroundColor=none;fontFamily=Times New Roman;fontSize=14;" parent="vzEPvGNgW9T1r-BRCIDj-54" vertex="1" connectable="0">
          <mxGeometry x="-0.1446" y="2" relative="1" as="geometry">
            <mxPoint x="132" y="-58" as="offset" />
          </mxGeometry>
        </mxCell>
        <mxCell id="vzEPvGNgW9T1r-BRCIDj-56" value="" style="endArrow=classic;html=1;rounded=1;entryX=0.5;entryY=1;entryDx=0;entryDy=0;fontFamily=Times New Roman;edgeStyle=orthogonalEdgeStyle;" parent="1" edge="1">
          <mxGeometry width="50" height="50" relative="1" as="geometry">
            <mxPoint x="680" y="600" as="sourcePoint" />
            <mxPoint x="359.5" y="320" as="targetPoint" />
            <Array as="points">
              <mxPoint x="680" y="600" />
              <mxPoint x="359" y="600" />
            </Array>
          </mxGeometry>
        </mxCell>
        <mxCell id="vzEPvGNgW9T1r-BRCIDj-57" value="Система сайта" style="edgeLabel;html=1;align=center;verticalAlign=middle;resizable=0;points=[];labelBackgroundColor=none;fontFamily=Times New Roman;fontSize=14;" parent="vzEPvGNgW9T1r-BRCIDj-56" vertex="1" connectable="0">
          <mxGeometry x="-0.1446" y="2" relative="1" as="geometry">
            <mxPoint x="-64" y="-82" as="offset" />
          </mxGeometry>
        </mxCell>
        <mxCell id="vzEPvGNgW9T1r-BRCIDj-58" value="" style="endArrow=classic;html=1;rounded=0;fontFamily=Times New Roman;fontSize=14;exitX=1;exitY=0.5;exitDx=0;exitDy=0;" parent="1" source="vzEPvGNgW9T1r-BRCIDj-43" edge="1">
          <mxGeometry width="50" height="50" relative="1" as="geometry">
            <mxPoint x="690" y="300" as="sourcePoint" />
            <mxPoint x="1200" y="440" as="targetPoint" />
          </mxGeometry>
        </mxCell>
        <mxCell id="vzEPvGNgW9T1r-BRCIDj-59" value="Персонаж" style="edgeLabel;html=1;align=center;verticalAlign=middle;resizable=0;points=[];fontSize=14;fontFamily=Times New Roman;labelBackgroundColor=none;" parent="vzEPvGNgW9T1r-BRCIDj-58" vertex="1" connectable="0">
          <mxGeometry x="-0.1448" y="1" relative="1" as="geometry">
            <mxPoint y="-19" as="offset" />
          </mxGeometry>
        </mxCell>
        <mxCell id="vzEPvGNgW9T1r-BRCIDj-60" value="" style="endArrow=classic;html=1;rounded=1;fontFamily=Times New Roman;fontSize=14;entryX=0;entryY=0.75;entryDx=0;entryDy=0;edgeStyle=orthogonalEdgeStyle;elbow=vertical;" parent="1" target="vzEPvGNgW9T1r-BRCIDj-42" edge="1">
          <mxGeometry width="50" height="50" relative="1" as="geometry">
            <mxPoint x="220" y="280" as="sourcePoint" />
            <mxPoint x="740" y="240" as="targetPoint" />
            <Array as="points">
              <mxPoint x="220" y="280" />
              <mxPoint x="220" y="380" />
            </Array>
          </mxGeometry>
        </mxCell>
        <mxCell id="vzEPvGNgW9T1r-BRCIDj-61" value="" style="endArrow=classic;html=1;rounded=1;fontFamily=Times New Roman;fontSize=14;entryX=0;entryY=0.75;entryDx=0;entryDy=0;edgeStyle=orthogonalEdgeStyle;elbow=vertical;" parent="1" target="vzEPvGNgW9T1r-BRCIDj-43" edge="1">
          <mxGeometry width="50" height="50" relative="1" as="geometry">
            <mxPoint x="220" y="280" as="sourcePoint" />
            <mxPoint x="600" y="479.94" as="targetPoint" />
            <Array as="points">
              <mxPoint x="220" y="280" />
              <mxPoint x="220" y="460" />
            </Array>
          </mxGeometry>
        </mxCell>
        <mxCell id="vzEPvGNgW9T1r-BRCIDj-62" value="" style="endArrow=classic;html=1;rounded=1;fontFamily=Times New Roman;fontSize=14;elbow=vertical;entryX=0.5;entryY=0;entryDx=0;entryDy=0;" parent="1" target="vzEPvGNgW9T1r-BRCIDj-42" edge="1">
          <mxGeometry width="50" height="50" relative="1" as="geometry">
            <mxPoint x="680" y="90" as="sourcePoint" />
            <mxPoint x="740" y="240" as="targetPoint" />
          </mxGeometry>
        </mxCell>
        <mxCell id="vzEPvGNgW9T1r-BRCIDj-63" value="" style="endArrow=classic;html=1;rounded=1;fontFamily=Times New Roman;fontSize=14;elbow=vertical;entryX=0.5;entryY=0;entryDx=0;entryDy=0;edgeStyle=orthogonalEdgeStyle;" parent="1" target="vzEPvGNgW9T1r-BRCIDj-43" edge="1">
          <mxGeometry width="50" height="50" relative="1" as="geometry">
            <mxPoint x="680" y="120" as="sourcePoint" />
            <mxPoint x="740" y="240" as="targetPoint" />
          </mxGeometry>
        </mxCell>
        <mxCell id="vzEPvGNgW9T1r-BRCIDj-64" value="A3" style="text;html=1;strokeColor=none;fillColor=none;align=center;verticalAlign=middle;whiteSpace=wrap;rounded=0;fontFamily=Times New Roman;" parent="1" vertex="1">
          <mxGeometry x="1060" y="460" width="20" height="20" as="geometry" />
        </mxCell>
        <mxCell id="vzEPvGNgW9T1r-BRCIDj-65" value="Получение лимитированного&amp;nbsp; персонажа за акцию на сайте сообщества" style="text;html=1;strokeColor=none;fillColor=none;align=center;verticalAlign=middle;whiteSpace=wrap;rounded=0;" parent="1" vertex="1">
          <mxGeometry x="620" y="40" width="120" height="30" as="geometry" />
        </mxCell>
      </root>
    </mxGraphModel>
  </diagram>
</mxfile>
